<?xml version="1.0" encoding="utf-8"?>
<!-- Generator: Adobe Illustrator 26.5.0, SVG Export Plug-In . SVG Version: 6.00 Build 0)  -->
<svg version="1.0" id="Layer_1" xmlns="http://www.w3.org/2000/svg" xmlns:xlink="http://www.w3.org/1999/xlink" x="0px" y="0px"
	 viewBox="0 0 618.21 450.97" style="enable-background:new 0 0 618.21 450.97;" xml:space="preserve">
<style type="text/css">
	.st0{fill:#1DAAE8;}
	.st1{fill:#1DAEE7;}
	.st2{fill:#1DC3E3;}
	.st3{fill:#1E89EE;}
	.st4{fill:#1E93EC;}
	.st5{fill:#1DB7E6;}
	.st6{fill:#1EA2E9;}
</style>
<path class="st0" d="M320.39,172.36c-0.14-4.59,3.46-8.43,8.05-8.58c4.59-0.14,8.43,3.46,8.58,8.05c0.01,0.19,0.01,0.38,0,0.57
	c0,38.16,0,76.32,0,114.48h-16.63C320.38,248.71,320.38,210.53,320.39,172.36z"/>
<path class="st1" d="M356.38,167.48c4.64-1.26,9.43,1.48,10.69,6.12c1.26,4.64-1.48,9.43-6.12,10.69s-9.43-1.48-10.69-6.12
	c-0.26-0.97-0.36-1.97-0.28-2.97C350.26,171.53,352.82,168.43,356.38,167.48z"/>
<path class="st2" d="M469.85,175.92c0.17-4.33,3.67-7.78,8-7.89c4.58-0.24,8.49,3.29,8.73,7.87c0,0.02,0,0.05,0,0.07
	c0,17.62,0,35.24,0,52.85l35.72-30.56c1.83-1.63,3.77-3.4,6.31-3.76c4.31-0.78,8.44,2.08,9.22,6.38c0,0.02,0.01,0.04,0.01,0.06
	c0.49,2.76-0.48,5.58-2.57,7.44c-12.87,11.09-25.75,22.19-38.63,33.28c16.77,15.08,33.55,30.16,50.36,45.23h-23.49
	c-1.2,0.19-1.9-1-2.71-1.58c-11.4-10.27-22.82-20.52-34.26-30.75c0.05,10.77,0,21.55,0,32.33h-16.69
	C469.85,249.9,469.85,212.91,469.85,175.92z"/>
<path class="st3" d="M81.88,209.84c7.32-8.78,17.73-14.42,29.08-15.74c5.13-0.46,9.63,4.79,8.52,9.78
	c-0.69,3.78-3.86,6.61-7.69,6.88c-12.94,1.88-23.41,13.72-23.88,26.72c-0.07,16.46,0,32.92,0,49.39c-5.54-0.05-11.09,0.1-16.64-0.08
	c0.08-15.74,0-31.48,0-47.22C71.08,228.7,74.85,218.13,81.88,209.84z"/>
<path class="st4" d="M138.84,207.33c19.01-16.23,47.57-13.98,63.8,5.03c4.69,5.49,8,12.03,9.64,19.06
	c1.47,6.07,1.15,12.35,1.2,18.55h-60.37c-4.56,0-8.31-4.55-7.86-9c0.26-4.2,3.7-7.5,7.91-7.58c14.13,0,28.26,0,42.4,0
	c-4.6-15.09-20.56-23.6-35.65-19.01s-23.6,20.56-19.01,35.65c3.16,10.37,11.91,18.06,22.6,19.85c11.14,2,23-3.49,28.9-13.08
	c6.17,0.09,12.33-0.13,18.49,0.12c-3.49,9.4-9.94,17.41-18.37,22.84c-21.01,13.46-48.96,7.33-62.41-13.68
	c-12.17-19-8.45-44.07,8.7-58.72L138.84,207.33z"/>
<path class="st1" d="M355.39,197.08c5.09-2.31,11.6,1.82,11.47,7.45c0,27.45,0,54.91,0,82.36h-16.61c0-27.45,0-54.9,0-82.33
	C350.31,201.26,352.34,198.32,355.39,197.08z"/>
<path class="st5" d="M395.57,203.92c16.98-12.52,40.9-8.9,53.41,8.09c2.51,3.41,4.44,7.21,5.71,11.25c1.41,4.83,2,9.86,1.75,14.89
	c0,16.25,0,32.5,0,48.74h-16.72c0-15.29,0-30.57,0-45.85c-0.06-4.9,0.49-10-1.62-14.62c-3.59-9-13.77-14.76-23.34-13
	c-10.09,1.72-17.59,10.26-18,20.48c0,17.66,0,35.32,0,53c-5.54,0-11.09,0-16.64,0c0-17.66,0-35.33,0-53
	C380.32,222.05,386.03,210.96,395.57,203.92z"/>
<path class="st6" d="M233.8,212.28c16.21-18.58,44.41-20.51,63-4.3c6.58,5.74,11.33,13.28,13.67,21.69
	c6.1,21.97-5.35,45.01-26.54,53.43c-5.66,2.21-11.7,3.29-17.77,3.17c-14.43-0.21-28.86,0-43.29-0.19c0-15.02,0-30.04,0-45.07
	C222.96,230.43,226.83,220.24,233.8,212.28z M246.37,220.59c-5.61,5.61-8.76,13.23-8.74,21.17c-0.05,9.82,0,19.65,0,29.47
	c8.8,0.27,17.6,0,26.4,0.2c4.74,0.13,9.58-0.19,14-2c15.38-5.84,23.12-23.04,17.28-38.42s-23.04-23.12-38.42-17.28
	c-3.96,1.5-7.55,3.83-10.54,6.83L246.37,220.59z"/>
<path class="st6" d="M254.73,224.69c9.3-7.08,22.58-5.29,29.67,4.02s5.29,22.58-4.02,29.67c-3.49,2.66-7.73,4.17-12.11,4.32
	c-7.33,0.08-14.65-0.15-22-0.08c0-7.21,0-14.41,0-21.62C246.45,234.55,249.57,228.54,254.73,224.69z"/>
</svg>
